<svg height="512" width="512" xmlns="http://www.w3.org/2000/svg"><path d="m148.6458282 81.0641403c43.2112427-81.4099855 158.9670868-85.6819043 207.8604279-7.6709671 37.8880615 60.4514771 13.7960815 135.4847717-41.8233948 167.7876129l-36.121521-62.5643005c22.1270447-12.8510284 31.7114563-42.7013397 16.6385498-66.750618-19.4511414-31.034935-65.5021057-29.3354645-82.692749 3.0517044-12.7206879 23.9658356-2.6391449 51.5502472 18.3088379 63.7294922l-36.1482544 62.6105804c-52.655899-30.6144256-77.9972992-99.9518737-46.0218964-160.1935043zm19.3208924 293.4067154c-.0435791 24.2778625-18.934967 46.8978271-46.092804 47.9000549-36.6418304 1.3522339-61.0877724-37.6520386-43.8971252-70.0392151 13.2918015-25.0418091 43.8297424-31.7192383 65.9928284-19.1222839l36.2165222-62.7288513c-55.7241974-31.7991638-132.6246796-15.0146027-166.0706635 47.9976501-43.2111893 81.4099731 18.2372913 179.4530945 110.3418884 176.0540161 68.1375427-2.5146179 115.5750122-59.1652527 115.8612366-120.0613708zm283.7476654-103.7137146-36.1215515 62.5642395c22.2027588 12.816864 31.8418274 42.7249451 16.744751 66.8127441-19.4511414 31.0349426-65.5021057 29.3354797-82.692688-3.0516968-12.742218-24.0063782-2.6048279-51.643219 18.4154358-63.7908325l-36.1482544-62.6105652c-52.7280579 30.5827942-78.1254272 99.9726562-46.128479 160.2548218 43.2111816 81.4099731 158.9670105 85.6818848 207.8603821 7.6710205 37.9121703-60.4900512 13.7656249-135.580902-41.929596-167.8497314z"/></svg>